<svg width="24" height="24" viewBox="0 0 24 24" fill="none" xmlns="http://www.w3.org/2000/svg">
<path d="M13 10L20.383 17.418C21.206 18.238 21.206 19.566 20.383 20.385C19.9876 20.7783 19.4527 20.999 18.895 20.999C18.3373 20.999 17.8024 20.7783 17.407 20.385L10 13" stroke="black" stroke-width="0.5" stroke-linecap="round" stroke-linejoin="round"/>
<path d="M6 9L10 13" stroke="black" stroke-width="0.5" stroke-linecap="round" stroke-linejoin="round"/>
<path d="M13 10L9 6" stroke="black" stroke-width="0.5" stroke-linecap="round" stroke-linejoin="round"/>
<path d="M3 21H10" stroke="black" stroke-width="0.5" stroke-linecap="round" stroke-linejoin="round"/>
<path d="M6.79309 15.793L3.20709 12.207C3.01962 12.0195 2.91431 11.7652 2.91431 11.5C2.91431 11.2348 3.01962 10.9805 3.20709 10.793L5.50009 8.5L6.00009 9L9.00009 6L8.50009 5.5L10.7931 3.207C10.9806 3.01953 11.2349 2.91422 11.5001 2.91422C11.7653 2.91422 12.0196 3.01953 12.2071 3.207L15.7931 6.793C15.9806 6.98053 16.0859 7.23484 16.0859 7.5C16.0859 7.76517 15.9806 8.01947 15.7931 8.207L13.5001 10.5L13.0001 10L10.0001 13L10.5001 13.5L8.20709 15.793C8.01957 15.9805 7.76526 16.0858 7.50009 16.0858C7.23493 16.0858 6.98062 15.9805 6.79309 15.793Z" stroke="black" stroke-width="0.5" stroke-linecap="round" stroke-linejoin="round"/>
</svg>
