<svg width="70" height="70" viewBox="0 0 70 70" fill="none" xmlns="http://www.w3.org/2000/svg">
<path d="M45.4344 55.0376C43.9848 55.0376 42.7547 54.5308 41.744 53.5173C40.7349 52.5023 40.2303 51.27 40.2303 49.8204C40.2303 49.6017 40.3265 49.0497 40.519 48.1645L24.7756 38.8173C24.3031 39.3627 23.7249 39.7907 23.0409 40.1013C22.357 40.412 21.6227 40.5673 20.8381 40.5673C19.4002 40.5673 18.1781 40.0554 17.1719 39.0317C16.1656 38.0079 15.6625 36.7807 15.6625 35.3501C15.6625 33.9195 16.1656 32.6923 17.1719 31.6685C18.1781 30.6448 19.4002 30.1329 20.8381 30.1329C21.6212 30.1329 22.3555 30.2882 23.0409 30.5988C23.7263 30.9095 24.3046 31.3382 24.7756 31.8851L40.5212 22.5773C40.4191 22.2944 40.3455 22.0136 40.3003 21.7351C40.2536 21.4551 40.2303 21.1693 40.2303 20.8776C40.2303 19.4295 40.7385 18.1979 41.755 17.1829C42.7714 16.1694 44.0052 15.6626 45.4562 15.6626C46.9073 15.6626 48.1381 16.1708 49.1487 17.1873C50.1594 18.2037 50.6639 19.4375 50.6625 20.8885C50.661 22.3396 50.1542 23.5704 49.1422 24.581C48.1301 25.5917 46.8978 26.0962 45.4453 26.0948C44.6549 26.0948 43.9257 25.9329 43.2578 25.6092C42.5899 25.2854 42.0211 24.8501 41.5515 24.3032L25.8037 33.6504C25.9058 33.9333 25.9795 34.2148 26.0247 34.4948C26.0713 34.7733 26.0947 35.0584 26.0947 35.3501C26.0947 35.6418 26.0713 35.9269 26.0247 36.2054C25.978 36.484 25.9051 36.7654 25.8059 37.0498L41.5515 46.397C42.0226 45.8501 42.5913 45.4148 43.2578 45.091C43.9257 44.7673 44.6549 44.6054 45.4453 44.6054C46.8949 44.6054 48.1272 45.1129 49.1422 46.1279C50.1557 47.1458 50.6625 48.3803 50.6625 49.8313C50.6625 51.2824 50.1542 52.5132 49.1378 53.5238C48.1213 54.5345 46.8854 55.0391 45.4344 55.0376Z" fill="black"/>
<circle cx="35" cy="35" r="33.935" stroke="black" stroke-width="2.13"/>
</svg>
