<svg width="34" height="46" viewBox="0 0 34 46" fill="none" xmlns="http://www.w3.org/2000/svg">
<path fill-rule="evenodd" clip-rule="evenodd" d="M18.2355 44.4546L18.2126 44.4587L18.0647 44.5317L18.023 44.54L17.9939 44.5317L17.8459 44.4587C17.8237 44.4518 17.8071 44.4553 17.7959 44.4691L17.7876 44.49L17.7522 45.3816L17.7626 45.4233L17.7834 45.4504L18.0001 45.6046L18.0314 45.6129L18.0564 45.6046L18.273 45.4504L18.298 45.4171L18.3064 45.3816L18.2709 44.4921C18.2654 44.4698 18.2536 44.4573 18.2355 44.4546ZM18.7876 44.2192L18.7605 44.2233L18.3751 44.4171L18.3543 44.4379L18.348 44.4608L18.3855 45.3567L18.3959 45.3816L18.4126 45.3962L18.8314 45.59C18.8578 45.5969 18.8779 45.5914 18.8918 45.5733L18.9001 45.5442L18.8293 44.265C18.8223 44.24 18.8084 44.2247 18.7876 44.2192ZM17.298 44.2233C17.2888 44.2178 17.2779 44.2159 17.2674 44.2183C17.2569 44.2206 17.2477 44.2269 17.2418 44.2358L17.2293 44.265L17.1584 45.5442C17.1598 45.5692 17.1716 45.5858 17.1939 45.5942L17.2251 45.59L17.6439 45.3962L17.6647 45.3796L17.673 45.3567L17.7084 44.4608L17.7022 44.4358L17.6814 44.415L17.298 44.2233Z" fill="white"/>
<path fill-rule="evenodd" clip-rule="evenodd" d="M0.333252 4.33317C0.333252 3.2281 0.772239 2.16829 1.55364 1.38689C2.33504 0.605491 3.39485 0.166504 4.49992 0.166504H29.4999C30.605 0.166504 31.6648 0.605491 32.4462 1.38689C33.2276 2.16829 33.6666 3.2281 33.6666 4.33317V37.6665C33.6666 38.7716 33.2276 39.8314 32.4462 40.6128C31.6648 41.3942 30.605 41.8332 29.4999 41.8332H4.49992C3.39485 41.8332 2.33504 41.3942 1.55364 40.6128C0.772239 39.8314 0.333252 38.7716 0.333252 37.6665V4.33317ZM29.4999 4.33317H4.49992V37.6665H29.4999V4.33317ZM8.66658 14.7498C8.66658 14.1973 8.88608 13.6674 9.27678 13.2767C9.66748 12.886 10.1974 12.6665 10.7499 12.6665H23.2499C23.8025 12.6665 24.3324 12.886 24.7231 13.2767C25.1138 13.6674 25.3333 14.1973 25.3333 14.7498C25.3333 15.3024 25.1138 15.8323 24.7231 16.223C24.3324 16.6137 23.8025 16.8332 23.2499 16.8332H10.7499C10.1974 16.8332 9.66748 16.6137 9.27678 16.223C8.88608 15.8323 8.66658 15.3024 8.66658 14.7498ZM10.7499 23.0832C10.1974 23.0832 9.66748 23.3027 9.27678 23.6934C8.88608 24.0841 8.66658 24.614 8.66658 25.1665C8.66658 25.719 8.88608 26.2489 9.27678 26.6396C9.66748 27.0303 10.1974 27.2498 10.7499 27.2498H16.9999C17.5525 27.2498 18.0824 27.0303 18.4731 26.6396C18.8638 26.2489 19.0833 25.719 19.0833 25.1665C19.0833 24.614 18.8638 24.0841 18.4731 23.6934C18.0824 23.3027 17.5525 23.0832 16.9999 23.0832H10.7499Z" fill="white"/>
</svg>
