<svg width="9" height="6" viewBox="0 0 9 6" fill="none" xmlns="http://www.w3.org/2000/svg">
<path opacity="0.984" fill-rule="evenodd" clip-rule="evenodd" d="M8.06602 1.08471C8.06602 2.4778 8.06602 3.87087 8.06602 5.26395C7.99177 5.52312 7.82365 5.68885 7.56163 5.76114C5.43839 5.77075 3.31513 5.77075 1.19189 5.76114C0.929871 5.68885 0.761741 5.52312 0.6875 5.26395C0.6875 3.87087 0.6875 2.4778 0.6875 1.08471C0.761741 0.825539 0.929871 0.65981 1.19189 0.587528C3.31513 0.57792 5.43839 0.57792 7.56163 0.587528C7.82365 0.65981 7.99177 0.825539 8.06602 1.08471ZM1.45129 1.02707C3.39919 1.01027 5.3495 1.00786 7.30223 1.01986C6.46118 1.86571 5.61573 2.70637 4.76586 3.54182C4.50646 3.72436 4.24706 3.72436 3.98766 3.54182C3.1397 2.70587 2.29424 1.86761 1.45129 1.02707ZM1.11984 1.34411C1.74361 1.94386 2.35849 2.55393 2.96446 3.17433C2.35458 3.79142 1.74212 4.40629 1.12704 5.01896C1.11984 3.79403 1.11743 2.56908 1.11984 1.34411ZM7.61927 1.34411C7.63608 2.56664 7.63847 3.79159 7.62648 5.01896C7.01141 4.40629 6.39893 3.79142 5.78905 3.17433C6.39501 2.55876 7.00508 1.94869 7.61927 1.34411ZM3.28151 3.50579C3.39792 3.60051 3.50841 3.7038 3.61297 3.81563C4.12216 4.22875 4.63136 4.22875 5.14055 3.81563C5.24404 3.70974 5.34971 3.60645 5.4576 3.50579C6.07908 4.10564 6.69396 4.71332 7.30223 5.3288C5.35192 5.33841 3.4016 5.33841 1.45129 5.3288C2.05985 4.71784 2.66993 4.11016 3.28151 3.50579Z" fill="#1670F8"/>
</svg>
