<svg width="50" height="50" viewBox="0 0 50 50" fill="none" xmlns="http://www.w3.org/2000/svg">
<path d="M8.33342 12.4998C9.43848 12.4998 10.4983 12.0609 11.2797 11.2794C12.0611 10.498 12.5001 9.43824 12.5001 8.33317C12.5001 7.2281 12.0611 6.16829 11.2797 5.38689C10.4983 4.60549 9.43848 4.1665 8.33342 4.1665C7.22835 4.1665 6.16854 4.60549 5.38714 5.38689C4.60573 6.16829 4.16675 7.2281 4.16675 8.33317C4.16675 9.43824 4.60573 10.498 5.38714 11.2794C6.16854 12.0609 7.22835 12.4998 8.33342 12.4998ZM10.4167 43.7498C12.0744 43.7498 13.6641 43.0914 14.8362 41.9193C16.0083 40.7472 16.6667 39.1574 16.6667 37.4998C16.6667 35.8422 16.0083 34.2525 14.8362 33.0804C13.6641 31.9083 12.0744 31.2498 10.4167 31.2498C8.75915 31.2498 7.16943 31.9083 5.99733 33.0804C4.82523 34.2525 4.16675 35.8422 4.16675 37.4998C4.16675 39.1574 4.82523 40.7472 5.99733 41.9193C7.16943 43.0914 8.75915 43.7498 10.4167 43.7498ZM39.5834 45.8332C41.241 45.8332 42.8307 45.1747 44.0028 44.0026C45.1749 42.8305 45.8334 41.2408 45.8334 39.5832C45.8334 37.9256 45.1749 36.3359 44.0028 35.1638C42.8307 33.9917 41.241 33.3332 39.5834 33.3332C37.9258 33.3332 36.3361 33.9917 35.164 35.1638C33.9919 36.3359 33.3334 37.9256 33.3334 39.5832C33.3334 41.2408 33.9919 42.8305 35.164 44.0026C36.3361 45.1747 37.9258 45.8332 39.5834 45.8332ZM22.9167 29.1665C25.1269 29.1665 27.2465 28.2885 28.8093 26.7257C30.3721 25.1629 31.2501 23.0433 31.2501 20.8332C31.2501 18.623 30.3721 16.5034 28.8093 14.9406C27.2465 13.3778 25.1269 12.4998 22.9167 12.4998C20.7066 12.4998 18.587 13.3778 17.0242 14.9406C15.4614 16.5034 14.5834 18.623 14.5834 20.8332C14.5834 23.0433 15.4614 25.1629 17.0242 26.7257C18.587 28.2885 20.7066 29.1665 22.9167 29.1665ZM35.4168 12.4998C36.5218 12.4998 37.5816 12.0609 38.363 11.2794C39.1444 10.498 39.5834 9.43824 39.5834 8.33317C39.5834 7.2281 39.1444 6.16829 38.363 5.38689C37.5816 4.60549 36.5218 4.1665 35.4168 4.1665C34.3117 4.1665 33.2519 4.60549 32.4705 5.38689C31.6891 6.16829 31.2501 7.2281 31.2501 8.33317C31.2501 9.43824 31.6891 10.498 32.4705 11.2794C33.2519 12.0609 34.3117 12.4998 35.4168 12.4998Z" stroke="white" stroke-width="4.16667" stroke-linecap="round" stroke-linejoin="round"/>
<path d="M11.4583 11.4585L15.6249 15.6252M31.2499 12.5002L29.1666 14.5835M35.4166 34.896L29.1666 27.0835M14.5833 32.2918L18.7499 28.1252" stroke="white" stroke-width="4.16667" stroke-linecap="round" stroke-linejoin="round"/>
</svg>
