<svg width="16" height="15" viewBox="0 0 16 15" fill="none" xmlns="http://www.w3.org/2000/svg">
<path d="M0.461595 4.79649H3.72658V14.3701H0.461595V4.79649ZM2.11403 0.188232C1.00576 0.188232 0.27356 0.903259 0.27356 1.84086C0.27356 2.75806 0.976319 3.49256 2.07414 3.49256H2.09409C3.2318 3.49256 3.94405 2.75806 3.93456 1.84086C3.92411 0.903259 3.2318 0.188232 2.11403 0.188232ZM11.719 4.57391C9.98209 4.57391 9.20905 5.50317 8.78075 6.15884V4.79649H5.52621C5.52621 4.79649 5.5661 5.69514 5.52621 14.3701H8.78075V9.02729C8.78075 8.73794 8.81114 8.45694 8.88901 8.24549C9.12738 7.67514 9.66015 7.08624 10.5623 7.08624C11.738 7.08624 12.2129 7.96542 12.2129 9.24987V14.3701H15.4684V8.88262C15.4684 5.94554 13.8653 4.57391 11.719 4.57391Z" fill="white"/>
</svg>
