<svg width="160" height="160" viewBox="0 0 160 160" fill="none" xmlns="http://www.w3.org/2000/svg">
<path d="M26.6667 133.333C23 133.333 19.8623 132.029 17.2534 129.42C14.6445 126.811 13.3378 123.671 13.3334 120V39.9998C13.3334 36.3332 14.64 33.1954 17.2534 30.5865C19.8667 27.9776 23.0045 26.6709 26.6667 26.6665H133.333C137 26.6665 140.14 27.9732 142.753 30.5865C145.367 33.1998 146.671 36.3376 146.667 39.9998V120C146.667 123.667 145.362 126.807 142.753 129.42C140.144 132.033 137.004 133.338 133.333 133.333H26.6667ZM133.333 53.3332L83.5 84.4998C82.9445 84.8332 82.3623 85.0843 81.7534 85.2532C81.1445 85.4221 80.56 85.5043 80 85.4998C79.44 85.4954 78.8578 85.4132 78.2534 85.2532C77.6489 85.0932 77.0645 84.8421 76.5 84.4998L26.6667 53.3332V120H133.333V53.3332ZM80 73.3332L133.333 39.9998H26.6667L80 73.3332ZM26.6667 54.9998V45.1665V45.3332V45.2532V54.9998Z" fill="white"/>
</svg>
