<svg width="50" height="50" viewBox="0 0 50 50" fill="none" xmlns="http://www.w3.org/2000/svg">
<path d="M25.287 9.45417C25.988 9.17409 26.7519 9.08971 27.4972 9.21007C28.2424 9.33042 28.941 9.65099 29.5182 10.1375L29.7807 10.3771L39.6224 20.2188C40.1569 20.7527 40.5361 21.4218 40.7196 22.1546C40.9031 22.8875 40.8839 23.6564 40.664 24.3792L40.5453 24.7125L35.6182 37.0313C35.3418 37.7209 34.886 38.324 34.2981 38.7782C33.7102 39.2324 33.0115 39.5212 32.2745 39.6146L21.6932 40.9375C21.421 40.9695 21.1363 41.0083 20.8391 41.0542L19.9141 41.2042L19.4307 41.2917L17.9245 41.5833L16.8932 41.8042L15.3411 42.1521L13.3516 42.6271L10.1182 43.4521L8.77239 43.8146C8.43275 43.908 8.07511 43.9146 7.73224 43.8339C7.38938 43.7531 7.07227 43.5876 6.80999 43.3525C6.54771 43.1174 6.34865 42.8202 6.23106 42.4882C6.11347 42.1561 6.08112 41.7999 6.13697 41.4521L6.2078 41.1479L6.82239 38.8313L7.37239 36.6479L7.84739 34.6583L8.1953 33.1063L8.41405 32.0729L8.7078 30.5688L8.87447 29.6167L9.0078 28.725L10.3828 17.725C10.4694 17.0462 10.7219 16.3991 11.118 15.841C11.514 15.2829 12.0414 14.8309 12.6536 14.525L12.9682 14.3813L25.287 9.45417ZM26.8328 13.3229L14.5161 18.25L13.2995 27.9833L13.1995 28.8083C12.995 30.3409 12.7274 31.8645 12.3974 33.375L12.0411 35.0125L18.8911 28.1625C18.6537 27.2765 18.7152 26.3369 19.0661 25.4895C19.4171 24.642 20.0379 23.9341 20.8322 23.4754C21.6266 23.0167 22.5501 22.833 23.4595 22.9527C24.3689 23.0724 25.2134 23.4889 25.862 24.1375C26.5106 24.7861 26.9271 25.6306 27.0468 26.54C27.1665 27.4494 26.9827 28.3729 26.5241 29.1672C26.0654 29.9616 25.3575 30.5824 24.51 30.9333C23.6625 31.2843 22.723 31.3458 21.837 31.1083L14.987 37.9583L15.8036 37.7771L17.437 37.4333C18.4549 37.2255 19.4782 37.0449 20.5057 36.8917L31.7495 35.4833L36.6766 23.1667L26.8328 13.3229ZM31.7557 6.46042C32.1142 6.10141 32.5913 5.88555 33.0977 5.85333C33.604 5.82111 34.1046 5.97475 34.5057 6.28542L34.7016 6.46042L43.5391 15.2979C43.9167 15.672 44.137 16.1762 44.1551 16.7074C44.1731 17.2386 43.9874 17.7566 43.636 18.1554C43.2846 18.5542 42.7941 18.8036 42.2648 18.8525C41.7356 18.9015 41.2076 18.7463 40.7891 18.4188L40.5932 18.2438L31.7557 9.40626C31.3652 9.01557 31.1457 8.48577 31.1457 7.93334C31.1457 7.38091 31.3652 6.85111 31.7557 6.46042Z" fill="white"/>
</svg>
