<svg width="590" height="883" viewBox="0 0 590 883" fill="none" xmlns="http://www.w3.org/2000/svg">
<rect width="590" height="883" fill="#797979"/>
<g clip-path="url(#clip0_325_6)">
<path d="M193.173 340.173C193.173 313.34 203.832 287.606 222.806 268.633C241.779 249.659 267.513 239 294.346 239C321.179 239 346.912 249.659 365.886 268.633C384.86 287.606 395.519 313.34 395.519 340.173V380.642C395.519 407.475 384.86 433.209 365.886 452.182C346.912 471.156 321.179 481.815 294.346 481.815C267.513 481.815 241.779 471.156 222.806 452.182C203.832 433.209 193.173 407.475 193.173 380.642V340.173ZM92 576.513C153.483 540.901 223.294 522.192 294.346 522.284C368 522.284 437.202 541.912 496.692 576.513V643.692H92V576.513Z" fill="white"/>
</g>
<defs>
<clipPath id="clip0_325_6">
<rect width="405" height="405" fill="white" transform="translate(92 239)"/>
</clipPath>
</defs>
</svg>
